<?xml version="1.0" standalone="no"?>
<!DOCTYPE svg PUBLIC "-//W3C//DTD SVG 20010904//EN"
 "http://www.w3.org/TR/2001/REC-SVG-20010904/DTD/svg10.dtd">
<svg version="1.0" xmlns="http://www.w3.org/2000/svg"
 width="73.000000pt" height="71.000000pt" viewBox="0 0 73.000000 71.000000"
 preserveAspectRatio="xMidYMid meet">

<g transform="translate(0.000000,71.000000) scale(0.100000,-0.100000)"
fill="#000000" stroke="none">
<path d="M111 611 c-6 -11 -11 -63 -11 -115 0 -83 3 -99 21 -117 16 -16 30
-19 67 -17 l47 3 5 65 5 65 63 3 63 3 -3 62 -3 62 -122 3 c-113 2 -123 1 -132
-17z"/>
<path d="M412 618 c-7 -7 -12 -36 -12 -65 l0 -53 58 0 c32 0 63 -5 70 -12 7
-7 12 -38 12 -70 l0 -58 43 0 c23 0 53 7 65 16 20 14 22 23 22 123 0 70 -4
111 -12 119 -17 17 -229 17 -246 0z"/>
<path d="M117 322 c-14 -15 -17 -40 -17 -119 0 -132 1 -133 141 -133 68 0 109
4 117 12 7 7 12 36 12 65 l0 53 -49 0 c-78 0 -81 3 -81 76 l0 64 -53 0 c-40 0
-58 -5 -70 -18z"/>
<path d="M540 286 c0 -71 -15 -86 -86 -86 l-54 0 0 -46 c0 -81 4 -84 135 -84
138 0 135 -3 135 139 0 119 -7 131 -81 131 l-49 0 0 -54z"/>
</g>
</svg>
