<?xml version="1.0" standalone="no"?>
<!DOCTYPE svg PUBLIC "-//W3C//DTD SVG 20010904//EN"
 "http://www.w3.org/TR/2001/REC-SVG-20010904/DTD/svg10.dtd">
<svg version="1.0" xmlns="http://www.w3.org/2000/svg"
 width="98.000000pt" height="114.000000pt" viewBox="0 0 98.000000 114.000000"
 preserveAspectRatio="xMidYMid meet">

<g transform="translate(0.000000,114.000000) scale(0.100000,-0.100000)"
fill="#000000" stroke="none">
<path d="M499 1057 c-40 -34 -88 -102 -66 -94 14 5 16 3 8 -11 -19 -33 -51
-67 -51 -55 0 6 5 15 10 18 6 3 10 12 10 18 0 7 -7 3 -16 -8 -8 -11 -20 -20
-27 -20 -17 0 -62 -85 -94 -180 -23 -66 -28 -97 -28 -180 0 -92 3 -105 33
-166 43 -90 115 -169 152 -169 24 0 29 5 34 34 4 18 2 46 -4 60 -13 34 -13 39
0 31 6 -3 10 1 10 10 0 8 7 18 15 21 23 9 19 19 -38 76 -55 56 -73 95 -84 189
-6 52 18 158 42 189 7 8 18 32 26 53 7 20 16 37 20 37 4 0 11 10 15 23 4 12
18 39 31 60 28 45 45 87 35 87 -4 0 -19 -10 -33 -23z m-133 -183 c-4 -9 -9
-15 -11 -12 -3 3 -3 13 1 22 4 9 9 15 11 12 3 -3 3 -13 -1 -22z m17 -578 c3 3
11 3 17 -1 9 -6 9 -9 0 -15 -9 -6 -4 -12 15 -22 19 -10 24 -18 16 -22 -7 -5
-26 6 -46 26 -33 31 -50 63 -22 39 8 -6 17 -8 20 -5z"/>
<path d="M560 914 c0 -3 11 -20 26 -36 89 -106 126 -297 89 -453 -22 -92 -86
-212 -156 -290 l-63 -70 105 -3 c98 -3 105 -2 123 20 30 37 73 129 95 203 66
224 36 414 -87 543 -42 44 -132 103 -132 86z"/>
<path d="M479 631 c-78 -79 19 -198 109 -135 71 50 30 164 -58 164 -12 0 -35
-13 -51 -29z"/>
</g>
</svg>
